<?xml version="1.0" encoding="utf-8"?>
<!-- Generator: Adobe Illustrator 23.0.5, SVG Export Plug-In . SVG Version: 6.00 Build 0)  -->
<svg version="1.1" id="Layer_1" xmlns="http://www.w3.org/2000/svg" xmlns:xlink="http://www.w3.org/1999/xlink" x="0px" y="0px"
	 viewBox="0 0 203 91" style="enable-background:new 0 0 203 91;" xml:space="preserve">
<style type="text/css">
	.st0{fill:#FFFFFF;}
	.st1{clip-path:url(#SVGID_2_);}
	.st2{fill:#36496D;}
	.st3{fill:#E3A6B6;}
	.st4{fill:#343F52;}
	.st5{fill:#60697B;}
</style>
<path class="st0" d="M6,0h191c3.3,0,6,2.7,6,6v79c0,3.3-2.7,6-6,6H6c-3.3,0-6-2.7-6-6V6C0,2.7,2.7,0,6,0z"/>
<g>
	<defs>
		<rect id="SVGID_1_" x="25" y="23.5" width="44" height="44"/>
	</defs>
	<clipPath id="SVGID_2_">
		<use xlink:href="#SVGID_1_"  style="overflow:visible;"/>
	</clipPath>
	<g class="st1">
		<path class="st2" d="M47,67.5c-12.1,0-22-9.9-22-22c0-5.4,2-10.5,5.5-14.6c0.5-0.5,1.3-0.6,1.8-0.1c0.5,0.5,0.6,1.3,0.1,1.8
			c-3.1,3.5-4.9,8.1-4.9,12.8c0,10.7,8.7,19.4,19.4,19.4s19.4-8.7,19.4-19.4c0-10.7-8.7-19.4-19.4-19.4c-2.9,0-5.8,0.7-8.5,1.9
			c-0.6,0.3-1.4,0-1.7-0.6c-0.3-0.6,0-1.4,0.6-1.7c3-1.5,6.3-2.2,9.6-2.2c12.1,0,22,9.9,22,22S59.1,67.5,47,67.5z"/>
		<path class="st3" d="M62.5,45.5c0,8.6-7,15.5-15.5,15.5s-15.5-7-15.5-15.5S38.4,30,47,30S62.5,36.9,62.5,45.5z"/>
		<path class="st2" d="M47,62.3c-9.3,0-16.8-7.5-16.8-16.8c0-9.3,7.5-16.8,16.8-16.8c9.3,0,16.8,7.5,16.8,16.8
			C63.8,54.8,56.3,62.3,47,62.3L47,62.3z M47,31.3c-7.9,0-14.2,6.4-14.2,14.2S39.1,59.7,47,59.7s14.2-6.4,14.2-14.2
			S54.9,31.3,47,31.3L47,31.3z"/>
		<path class="st2" d="M46.6,50c-0.9,0-1.8-0.4-2.5-1l-3.5-3.5c-0.5-0.5-0.5-1.3,0-1.8c0.5-0.5,1.3-0.5,1.8,0l3.5,3.5
			c0.4,0.4,1,0.4,1.4,0l5.3-5.4c0.5-0.5,1.3-0.5,1.8,0c0.5,0.5,0.5,1.3,0,1.8L49.1,49C48.4,49.6,47.5,50,46.6,50z"/>
	</g>
</g>
<path class="st4" d="M85.1,43v-2.3l6.8-6c0.5-0.5,0.9-0.9,1.1-1.3s0.3-0.8,0.3-1.2c0-0.5-0.1-1-0.3-1.4c-0.2-0.4-0.5-0.7-0.9-1
	c-0.4-0.2-0.9-0.4-1.4-0.4c-0.6,0-1,0.1-1.5,0.4c-0.4,0.2-0.7,0.6-1,1c-0.2,0.4-0.3,0.9-0.3,1.4h-2.7c0-1.1,0.2-2,0.7-2.8
	c0.5-0.8,1.1-1.4,2-1.8c0.8-0.4,1.8-0.6,2.9-0.6c1,0,1.9,0.2,2.7,0.7c0.8,0.4,1.4,1.1,1.9,1.9c0.5,0.8,0.7,1.7,0.7,2.7
	c0,0.8-0.1,1.4-0.3,1.9c-0.2,0.5-0.5,1-0.9,1.4c-0.4,0.4-0.9,0.9-1.5,1.4l-4.8,4.3l-0.2-0.7H96V43H85.1z M103.3,43.3
	c-0.8,0-1.6-0.2-2.3-0.5c-0.7-0.3-1.3-0.8-1.8-1.4c-0.5-0.6-0.9-1.3-1.1-2l2.6-0.7c0.1,0.4,0.3,0.8,0.6,1.1c0.3,0.3,0.6,0.5,1,0.7
	c0.4,0.2,0.8,0.3,1.2,0.3c0.5,0,1-0.1,1.4-0.4c0.4-0.2,0.8-0.6,1-1c0.3-0.4,0.4-0.9,0.4-1.4c0-0.5-0.1-1-0.4-1.4
	c-0.2-0.4-0.6-0.8-1-1c-0.4-0.2-0.9-0.4-1.4-0.4c-0.6,0-1.1,0.1-1.5,0.3c-0.4,0.2-0.7,0.5-0.9,0.7l-2.3-0.7l0.5-8.4h8.6v2.5h-7.2
	l1-0.9l-0.4,5.8l-0.5-0.6c0.4-0.4,0.9-0.7,1.4-0.8c0.5-0.2,1.1-0.3,1.6-0.3c1,0,1.9,0.2,2.6,0.7c0.8,0.4,1.4,1.1,1.8,1.8
	c0.4,0.8,0.7,1.7,0.7,2.7c0,1-0.3,1.9-0.8,2.7c-0.5,0.8-1.2,1.4-2,1.9C105.3,43.1,104.3,43.3,103.3,43.3z M116.7,40.1v-3.9h-3.9V34
	h3.9v-3.9h2.1V34h3.9v2.1h-3.9v3.9H116.7z"/>
<path class="st5" d="M86,67V56.9h3.9c0.1,0,0.2,0,0.3,0c0.1,0,0.3,0,0.4,0c0.5,0.1,1,0.3,1.3,0.6c0.4,0.3,0.6,0.6,0.8,1.1
	C92.9,59,93,59.5,93,60c0,0.5-0.1,1-0.3,1.4c-0.2,0.4-0.5,0.8-0.8,1.1c-0.4,0.3-0.8,0.5-1.3,0.5c-0.1,0-0.3,0-0.4,0
	c-0.1,0-0.2,0-0.3,0H87V67H86z M87,62.2h2.8c0.1,0,0.2,0,0.3,0c0.1,0,0.2,0,0.3,0c0.3-0.1,0.6-0.2,0.8-0.4c0.2-0.2,0.4-0.5,0.5-0.7
	c0.1-0.3,0.2-0.6,0.2-0.9s-0.1-0.6-0.2-0.9c-0.1-0.3-0.3-0.5-0.5-0.8c-0.2-0.2-0.5-0.4-0.8-0.4c-0.1,0-0.2,0-0.3,0
	c-0.1,0-0.2,0-0.3,0H87V62.2z M94.6,67v-7.6h0.9v1.8L95.3,61c0.1-0.2,0.2-0.4,0.3-0.6c0.1-0.2,0.3-0.3,0.4-0.5
	c0.2-0.2,0.4-0.3,0.7-0.4c0.3-0.1,0.5-0.1,0.8-0.2c0.3,0,0.5,0,0.7,0.1v1c-0.3-0.1-0.6-0.1-0.9,0c-0.3,0-0.6,0.2-0.9,0.4
	c-0.3,0.2-0.4,0.4-0.6,0.7c-0.1,0.3-0.2,0.6-0.3,0.9c0,0.3-0.1,0.6-0.1,0.9V67H94.6z M102.8,67.2c-0.8,0-1.4-0.2-1.9-0.5
	c-0.5-0.3-0.9-0.8-1.2-1.4c-0.3-0.6-0.4-1.3-0.4-2.1c0-0.8,0.1-1.5,0.4-2.1c0.3-0.6,0.7-1.1,1.2-1.4c0.5-0.3,1.2-0.5,1.9-0.5
	c0.8,0,1.4,0.2,1.9,0.5c0.5,0.3,0.9,0.8,1.2,1.4c0.3,0.6,0.4,1.3,0.4,2.1c0,0.8-0.1,1.5-0.4,2.1c-0.3,0.6-0.7,1.1-1.2,1.4
	C104.2,67,103.5,67.2,102.8,67.2z M102.8,66.2c0.8,0,1.5-0.3,1.9-0.8c0.4-0.6,0.6-1.3,0.6-2.2c0-0.9-0.2-1.6-0.6-2.2
	c-0.4-0.5-1-0.8-1.9-0.8c-0.6,0-1,0.1-1.4,0.4c-0.4,0.3-0.6,0.6-0.8,1.1c-0.2,0.4-0.3,1-0.3,1.6c0,0.9,0.2,1.6,0.6,2.2
	C101.3,65.9,102,66.2,102.8,66.2z M106.9,70.4v-1h0.4c0.3,0,0.6-0.1,0.8-0.3c0.2-0.2,0.3-0.5,0.3-0.9v-8.8h1v9
	c0,0.6-0.2,1.1-0.5,1.4c-0.3,0.3-0.8,0.5-1.4,0.5H106.9z M108.5,58v-1.2h1V58H108.5z M114.9,67.2c-0.7,0-1.4-0.2-1.9-0.5
	c-0.5-0.3-1-0.8-1.3-1.4c-0.3-0.6-0.4-1.3-0.4-2.1c0-0.8,0.1-1.5,0.4-2.1c0.3-0.6,0.7-1.1,1.2-1.4c0.5-0.3,1.2-0.5,1.9-0.5
	c0.7,0,1.4,0.2,1.9,0.5c0.5,0.3,0.9,0.8,1.2,1.5c0.3,0.6,0.4,1.4,0.4,2.3h-1.1v-0.4c0-1-0.2-1.7-0.6-2.2c-0.4-0.5-1-0.7-1.8-0.7
	c-0.8,0-1.4,0.3-1.9,0.8c-0.4,0.5-0.6,1.3-0.6,2.3c0,1,0.2,1.7,0.6,2.2c0.4,0.5,1,0.8,1.8,0.8c0.5,0,1-0.1,1.4-0.4
	c0.4-0.3,0.7-0.6,1-1.1l1,0.4c-0.3,0.7-0.7,1.2-1.3,1.5C116.3,67,115.6,67.2,114.9,67.2z M112,63.5v-0.9h5.8v0.9H112z M123.2,67.2
	c-0.8,0-1.4-0.2-1.9-0.5c-0.5-0.3-0.9-0.8-1.2-1.4c-0.3-0.6-0.4-1.3-0.4-2.1c0-0.8,0.2-1.5,0.4-2.1c0.3-0.6,0.7-1.1,1.2-1.4
	c0.5-0.3,1.2-0.5,1.9-0.5c0.8,0,1.4,0.2,2,0.6c0.6,0.4,1,0.9,1.2,1.5l-1,0.3c-0.2-0.5-0.5-0.8-0.8-1c-0.4-0.3-0.8-0.4-1.3-0.4
	c-0.6,0-1,0.1-1.4,0.4c-0.4,0.3-0.6,0.6-0.8,1.1c-0.2,0.5-0.3,1-0.3,1.6c0,0.9,0.2,1.6,0.6,2.2c0.4,0.5,1,0.8,1.8,0.8
	c0.5,0,0.9-0.1,1.3-0.3c0.4-0.2,0.6-0.6,0.8-1l1,0.3c-0.3,0.7-0.7,1.2-1.2,1.5C124.6,67,123.9,67.2,123.2,67.2z M132,67
	c-0.4,0.1-0.8,0.1-1.3,0.1c-0.4,0-0.8-0.1-1.1-0.3c-0.3-0.2-0.6-0.4-0.7-0.7c-0.1-0.3-0.2-0.6-0.2-0.8c0-0.3,0-0.6,0-1v-6.9h1v6.9
	c0,0.3,0,0.6,0,0.8c0,0.2,0.1,0.4,0.1,0.6c0.2,0.3,0.4,0.5,0.8,0.6c0.4,0.1,0.8,0,1.4,0V67z M127.1,60.3v-0.9h5v0.9H127.1z
	 M136.5,67.2c-0.9,0-1.6-0.2-2.2-0.6c-0.6-0.4-0.9-0.9-1.1-1.6l1.1-0.2c0.1,0.4,0.4,0.8,0.8,1c0.4,0.3,0.9,0.4,1.5,0.4
	c0.6,0,1-0.1,1.4-0.4c0.3-0.2,0.5-0.6,0.5-1c0-0.2-0.1-0.4-0.2-0.6c-0.1-0.1-0.3-0.3-0.6-0.4c-0.3-0.1-0.8-0.3-1.4-0.4
	c-0.7-0.2-1.2-0.4-1.6-0.6c-0.4-0.2-0.7-0.4-0.8-0.6c-0.2-0.2-0.2-0.5-0.2-0.9c0-0.4,0.1-0.8,0.4-1.1c0.2-0.3,0.6-0.6,1-0.8
	c0.4-0.2,0.9-0.3,1.5-0.3s1.1,0.1,1.5,0.3c0.5,0.2,0.8,0.4,1.1,0.8c0.3,0.3,0.4,0.7,0.5,1.2l-1.1,0.2c-0.1-0.4-0.3-0.8-0.7-1
	c-0.4-0.3-0.8-0.4-1.4-0.4c-0.5,0-1,0.1-1.3,0.3c-0.3,0.2-0.5,0.5-0.5,0.9c0,0.2,0.1,0.4,0.2,0.5c0.1,0.1,0.3,0.3,0.7,0.4
	c0.3,0.1,0.8,0.3,1.4,0.4c0.7,0.2,1.2,0.4,1.6,0.6c0.4,0.2,0.7,0.4,0.8,0.7s0.3,0.6,0.3,1c0,0.7-0.3,1.3-0.8,1.7
	C138.1,67,137.4,67.2,136.5,67.2z M144.1,67V56.9h3.1c0.1,0,0.3,0,0.5,0c0.3,0,0.5,0,0.7,0.1c0.8,0.1,1.4,0.4,1.9,0.9
	c0.5,0.5,0.9,1,1.2,1.8c0.3,0.7,0.4,1.5,0.4,2.4s-0.1,1.6-0.4,2.4c-0.3,0.7-0.6,1.3-1.2,1.8c-0.5,0.5-1.2,0.7-1.9,0.9
	c-0.2,0-0.5,0-0.7,0.1c-0.3,0-0.4,0-0.5,0H144.1z M145.2,66h2c0.2,0,0.4,0,0.6,0c0.2,0,0.4,0,0.6-0.1c0.6-0.1,1.1-0.3,1.4-0.7
	c0.4-0.4,0.6-0.8,0.8-1.4c0.2-0.6,0.3-1.2,0.3-1.9c0-0.7-0.1-1.3-0.3-1.9s-0.4-1-0.8-1.4c-0.4-0.4-0.8-0.6-1.4-0.7
	c-0.2,0-0.4-0.1-0.6-0.1c-0.2,0-0.4,0-0.6,0h-2V66z M156.8,67.2c-0.8,0-1.4-0.2-1.9-0.5c-0.5-0.3-0.9-0.8-1.2-1.4
	c-0.3-0.6-0.4-1.3-0.4-2.1c0-0.8,0.1-1.5,0.4-2.1c0.3-0.6,0.7-1.1,1.2-1.4c0.5-0.3,1.2-0.5,1.9-0.5c0.8,0,1.4,0.2,1.9,0.5
	c0.5,0.3,0.9,0.8,1.2,1.4c0.3,0.6,0.4,1.3,0.4,2.1c0,0.8-0.1,1.5-0.4,2.1c-0.3,0.6-0.7,1.1-1.2,1.4C158.2,67,157.6,67.2,156.8,67.2z
	 M156.8,66.2c0.8,0,1.5-0.3,1.9-0.8c0.4-0.6,0.6-1.3,0.6-2.2c0-0.9-0.2-1.6-0.6-2.2c-0.4-0.5-1-0.8-1.9-0.8c-0.6,0-1,0.1-1.4,0.4
	c-0.4,0.3-0.6,0.6-0.8,1.1c-0.2,0.4-0.3,1-0.3,1.6c0,0.9,0.2,1.6,0.6,2.2C155.4,65.9,156,66.2,156.8,66.2z M167.5,67v-3.9
	c0-0.4,0-0.8-0.1-1.2c-0.1-0.4-0.2-0.7-0.4-0.9c-0.2-0.3-0.4-0.5-0.7-0.6c-0.3-0.1-0.6-0.2-1-0.2c-0.4,0-0.7,0.1-1,0.2
	c-0.3,0.1-0.5,0.3-0.7,0.5c-0.2,0.2-0.3,0.5-0.4,0.9c-0.1,0.3-0.1,0.7-0.1,1.1l-0.7-0.2c0-0.8,0.1-1.4,0.4-2
	c0.3-0.5,0.6-0.9,1.1-1.2c0.5-0.3,1-0.4,1.6-0.4c0.5,0,0.8,0.1,1.2,0.2c0.3,0.1,0.6,0.3,0.9,0.6c0.2,0.2,0.4,0.5,0.6,0.8
	c0.1,0.3,0.2,0.6,0.3,1c0.1,0.3,0.1,0.7,0.1,1V67H167.5z M162.1,67v-7.6h0.9v1.9h0.1V67H162.1z M173.7,67.2c-0.7,0-1.4-0.2-1.9-0.5
	c-0.5-0.3-1-0.8-1.3-1.4c-0.3-0.6-0.4-1.3-0.4-2.1c0-0.8,0.1-1.5,0.4-2.1c0.3-0.6,0.7-1.1,1.2-1.4c0.5-0.3,1.2-0.5,1.9-0.5
	c0.7,0,1.4,0.2,1.9,0.5c0.5,0.3,0.9,0.8,1.2,1.5c0.3,0.6,0.4,1.4,0.4,2.3h-1v-0.4c0-1-0.2-1.7-0.6-2.2c-0.4-0.5-1-0.7-1.8-0.7
	c-0.8,0-1.4,0.3-1.9,0.8c-0.4,0.5-0.6,1.3-0.6,2.3c0,1,0.2,1.7,0.6,2.2c0.4,0.5,1,0.8,1.8,0.8c0.5,0,1-0.1,1.4-0.4
	c0.4-0.3,0.7-0.6,1-1.1l1,0.4c-0.3,0.7-0.7,1.2-1.3,1.5C175.1,67,174.4,67.2,173.7,67.2z M170.8,63.5v-0.9h5.8v0.9H170.8z"/>
</svg>
